<?xml version="1.0" encoding="UTF-8" standalone="no"?>
<!DOCTYPE svg PUBLIC "-//W3C//DTD SVG 1.1//EN" "http://www.w3.org/Graphics/SVG/1.1/DTD/svg11.dtd">
<svg width="1600.00" height="1600.00" viewBox="0.00 0.00 1600.00 1600.00" xmlns="http://www.w3.org/2000/svg" xmlns:xlink="http://www.w3.org/1999/xlink">
<g stroke-linecap="round" id="Layer_5">
<path d="M27.03,684.55 C27.03,684.55 27.10,683.00 27.10,683.00 C26.50,691.40 26.19,697.76 26.48,707.56 C27.19,722.82 28.94,752.68 30.38,767.89 C31.68,779.22 36.68,810.89 39.34,824.96 C42.07,839.30 47.19,867.34 49.35,880.93 C51.37,894.79 55.37,921.42 57.57,937.04 C59.55,952.35 62.32,974.51 63.71,993.54 C65.44,1025.52 68.62,1078.18 69.76,1087.47 C70.48,1093.24 73.54,1106.21 75.33,1111.07 C76.37,1113.84 79.08,1119.46 80.37,1121.58 C81.59,1123.56 85.47,1128.61 87.99,1130.92 C91.99,1134.53 103.01,1140.46 107.94,1141.93 C113.05,1143.43 125.58,1144.95 131.94,1144.95 C136.84,1144.92 180.55,1139.51 188.56,1137.80 C198.17,1135.60 229.16,1127.02 242.90,1123.13 C256.78,1119.45 286.01,1112.62 300.21,1109.71 C314.46,1107.12 375.19,1097.06 390.49,1094.26 C398.88,1092.70 410.98,1091.42 418.67,1090.63 C428.06,1089.59 437.62,1087.35 441.05,1085.68 C441.87,1085.27 446.99,1081.86 448.93,1079.86 C451.00,1077.72 454.25,1072.61 455.18,1070.67 C457.35,1066.06 460.17,1054.35 460.64,1047.44 C461.10,1040.24 460.10,1026.21 459.45,1020.99 C458.21,1011.05 443.00,931.11 437.62,901.13 C434.78,884.72 429.41,852.94 426.86,837.57 C424.95,824.50 420.98,796.22 418.93,781.01 C417.22,767.08 414.01,738.45 412.64,722.28 C411.40,706.47 409.36,681.17 407.08,665.86 C405.40,656.17 402.47,645.62 399.87,639.96 C398.58,637.19 395.35,631.64 393.89,629.71 C392.28,627.61 387.94,623.27 385.57,621.45 C381.20,618.15 370.14,613.14 364.93,612.08 C359.89,611.10 346.56,610.64 339.26,611.01 C327.42,611.84 297.55,616.48 281.91,618.97 C267.44,621.28 227.42,626.64 225.25,627.02 C210.33,629.74 178.25,635.40 165.35,636.47 C150.56,637.40 115.29,639.84 109.80,640.98 C97.40,643.62 42.12,661.23 41.12,661.57 C36.90,663.03 32.47,665.54 30.58,667.93 C26.94,672.66 25.53,678.39 24.84,682.60" fill="none" stroke="rgb(88, 83, 121)" stroke-width="40.00" stroke-opacity="1.00" stroke-linejoin="round"/>
<path d="M386.76,1019.47 C387.35,1019.38 387.73,1019.32 387.90,1019.31 C388.92,1019.28 393.91,1021.58 396.32,1023.96 C398.51,1026.16 400.91,1030.76 401.42,1032.46 C402.03,1034.56 402.37,1039.08 402.05,1041.38 C401.69,1043.80 400.16,1048.11 398.54,1050.74 C397.07,1053.06 393.45,1056.82 391.10,1058.43 C388.70,1060.04 383.40,1062.22 380.67,1062.72 C377.93,1063.19 372.39,1062.89 369.87,1062.14 C367.36,1061.36 362.94,1058.64 361.22,1056.82 C359.57,1055.03 357.21,1050.73 356.56,1048.38 C355.96,1046.10 355.74,1041.38 356.07,1039.04 C356.41,1036.77 357.91,1032.51 358.97,1030.68 C360.23,1028.55 364.03,1024.20 367.18,1022.29 C370.02,1020.61 375.77,1018.92 378.87,1018.48 C382.19,1018.05 385.52,1018.27 386.61,1018.49" fill="none" stroke="rgb(88, 83, 121)" stroke-width="30.00" stroke-opacity="1.00" stroke-linejoin="round"/>
<path d="M458.76,1047.70 C460.53,1047.27 497.94,1029.14 501.10,1028.35 C503.45,1027.79 518.86,1032.69 526.59,1035.41 C540.01,1040.53 567.72,1051.59 582.01,1057.53 C596.69,1063.37 625.24,1073.55 638.54,1077.89 C656.07,1083.18 726.93,1101.87 758.16,1110.03 C790.60,1119.09 853.59,1137.06 884.15,1145.98 C899.69,1150.26 930.72,1158.47 946.21,1162.40 C959.93,1165.59 989.36,1171.65 1004.61,1173.71 C1011.17,1174.50 1026.04,1176.18 1032.44,1176.48 C1039.53,1176.79 1053.22,1176.27 1061.70,1175.49 C1068.66,1174.84 1080.62,1172.51 1091.19,1170.03 C1095.14,1169.09 1109.11,1164.91 1120.56,1160.78 C1131.22,1156.56 1156.84,1145.96 1176.89,1136.92 C1206.31,1123.00 1264.10,1095.44 1292.47,1081.79 C1317.36,1069.67 1373.32,1040.60 1402.97,1025.05 C1415.48,1018.46 1442.30,1004.19 1456.61,996.51 C1469.17,989.40 1501.92,970.59 1507.19,967.21 C1511.96,964.10 1523.51,955.72 1527.68,951.75 C1533.65,946.02 1542.59,933.66 1545.53,927.31 C1547.14,923.79 1549.67,916.73 1550.48,913.17 C1551.26,909.69 1552.23,902.51 1552.27,899.20 C1552.30,895.96 1551.75,889.50 1551.11,886.52 C1550.45,883.60 1548.45,877.65 1546.68,874.52 C1544.75,871.16 1540.67,866.26 1537.89,863.70 C1533.18,859.40 1521.48,852.10 1515.04,849.42 C1508.59,846.76 1495.28,843.25 1488.80,842.33 C1481.94,841.39 1466.62,840.92 1458.23,841.38 C1450.23,841.83 1436.46,843.68 1429.38,844.85 C1416.01,847.36 1390.75,853.94 1372.01,859.90 C1358.78,864.40 1329.61,876.47 1315.86,882.28 C1299.88,888.79 1269.83,899.87 1255.02,904.90 C1230.94,913.51 1188.52,930.68 1185.00,932.12" fill="none" stroke="rgb(88, 83, 121)" stroke-width="40.00" stroke-opacity="1.00" stroke-linejoin="round"/>
<path d="M1013.90,794.97 C1007.67,792.48 994.28,787.89 987.22,785.52 C974.09,781.51 944.31,774.94 930.50,772.29 C916.53,769.92 886.01,766.03 870.77,764.16 C858.05,762.26 821.19,755.12 810.45,752.50 C793.41,748.03 772.43,741.83 754.67,735.06 C744.61,731.07 714.57,715.27 699.12,707.09 C686.96,700.58 671.46,692.23 650.78,682.63 C642.75,678.96 625.88,671.40 619.97,668.98 C614.32,666.72 575.50,654.20 562.03,651.08 C553.80,649.34 534.11,645.40 531.16,644.93 C523.23,643.67 508.34,642.76 504.19,642.66 C495.15,642.53 485.10,643.16 472.99,644.49 C455.43,646.69 418.37,651.48 408.09,653.12 C406.95,653.31 405.01,653.63 404.21,653.76" fill="none" stroke="rgb(88, 83, 121)" stroke-width="40.00" stroke-opacity="1.00" stroke-linejoin="round"/>
<path d="M1192.00,928.50 C1191.81,928.68 1191.66,928.81 1191.54,928.90 C1190.23,929.86 1176.82,937.49 1170.59,940.88 C1165.31,943.68 1150.98,950.12 1146.04,952.07 C1135.63,955.97 1104.03,966.51 1092.03,969.74 C1085.50,971.42 1072.37,973.97 1066.06,974.85 C1058.50,975.78 1044.94,976.17 1036.88,975.61 C1030.62,975.15 1017.37,971.86 1010.33,969.93 C1004.78,968.32 924.21,942.42 893.50,932.69 C879.58,928.16 847.93,917.93 838.77,914.70 C825.83,909.77 792.83,896.63 786.46,894.93 C780.78,893.44 773.08,893.02 762.56,893.72 C752.74,894.56 740.22,896.28 733.43,897.42 C725.68,898.91 717.40,900.82 715.22,901.47" fill="none" stroke="rgb(88, 83, 121)" stroke-width="40.00" stroke-opacity="1.00" stroke-linejoin="round"/>
<path d="M1002.50,793.00 C1002.52,793.21 1005.32,793.89 1006.45,794.18 C1016.72,796.82 1053.93,811.45 1061.73,815.18 C1067.37,817.88 1080.93,825.30 1085.64,828.57 C1092.49,833.35 1100.99,840.56 1107.86,847.49 C1115.21,855.16 1122.55,863.90 1125.85,869.24 C1129.63,875.38 1134.71,889.52 1135.89,894.19 C1137.58,900.95 1138.34,909.93 1137.22,914.76 C1136.02,919.76 1128.99,934.94 1126.35,939.50 C1123.43,944.49 1116.90,953.11 1116.14,954.11" fill="none" stroke="rgb(88, 83, 121)" stroke-width="40.00" stroke-opacity="1.00" stroke-linejoin="round"/>
<path d="M1091.19,968.00 C1095.70,966.85 1104.03,961.47 1107.06,959.14 C1109.45,957.28 1113.34,953.97 1114.24,953.19" fill="none" stroke="rgb(88, 83, 121)" stroke-width="40.00" stroke-opacity="1.00" stroke-linejoin="round"/>
<path d="M310.01,1034.21 C310.57,1034.36 312.70,1035.03 313.68,1035.48 C316.19,1036.68 321.04,1040.83 322.16,1043.09 C323.43,1045.71 323.80,1050.67 323.56,1053.16 C323.28,1055.74 321.86,1060.44 320.60,1062.71 C319.23,1065.09 315.43,1069.17 312.96,1070.83 C310.48,1072.46 305.02,1074.58 302.19,1074.99 C299.30,1075.38 293.84,1074.69 291.30,1073.61 C288.84,1072.52 284.90,1069.28 283.43,1067.17 C282.01,1065.08 280.50,1060.66 280.29,1058.10 C280.12,1055.72 280.72,1050.94 281.43,1048.64 C282.04,1046.71 284.18,1042.52 285.43,1040.74 C287.09,1038.48 291.90,1034.76 295.65,1033.44 C298.59,1032.47 304.78,1031.91 307.38,1032.51 C307.63,1032.58 307.93,1032.67 308.29,1032.80" fill="none" stroke="rgb(88, 83, 121)" stroke-width="30.00" stroke-opacity="1.00" stroke-linejoin="round"/>
</g>
</svg>
